<mxfile host="app.diagrams.net" modified="2023-11-16T18:10:06.982Z" agent="Mozilla/5.0 (Windows NT 10.0; Win64; x64) AppleWebKit/537.36 (KHTML, like Gecko) Chrome/119.0.0.0 Safari/537.36" etag="6VliyDIIXXKC5pQhoKP7" version="22.1.2" type="device">
  <diagram id="C5RBs43oDa-KdzZeNtuy" name="Page-1">
    <mxGraphModel dx="1358" dy="704" grid="1" gridSize="10" guides="1" tooltips="1" connect="1" arrows="1" fold="1" page="1" pageScale="1" pageWidth="827" pageHeight="1169" math="0" shadow="0">
      <root>
        <mxCell id="WIyWlLk6GJQsqaUBKTNV-0" />
        <mxCell id="WIyWlLk6GJQsqaUBKTNV-1" parent="WIyWlLk6GJQsqaUBKTNV-0" />
        <mxCell id="BXSHAzuIC0hG-03GseZI-12" style="edgeStyle=orthogonalEdgeStyle;rounded=0;orthogonalLoop=1;jettySize=auto;html=1;entryX=0.5;entryY=0;entryDx=0;entryDy=0;" edge="1" parent="WIyWlLk6GJQsqaUBKTNV-1" source="BXSHAzuIC0hG-03GseZI-9" target="BXSHAzuIC0hG-03GseZI-10">
          <mxGeometry relative="1" as="geometry" />
        </mxCell>
        <mxCell id="BXSHAzuIC0hG-03GseZI-9" value="Game starts&lt;br&gt;" style="rounded=1;whiteSpace=wrap;html=1;" vertex="1" parent="WIyWlLk6GJQsqaUBKTNV-1">
          <mxGeometry x="260" y="30" width="120" height="60" as="geometry" />
        </mxCell>
        <mxCell id="BXSHAzuIC0hG-03GseZI-13" style="edgeStyle=orthogonalEdgeStyle;rounded=0;orthogonalLoop=1;jettySize=auto;html=1;entryX=0.5;entryY=0;entryDx=0;entryDy=0;" edge="1" parent="WIyWlLk6GJQsqaUBKTNV-1" source="BXSHAzuIC0hG-03GseZI-10" target="BXSHAzuIC0hG-03GseZI-11">
          <mxGeometry relative="1" as="geometry" />
        </mxCell>
        <mxCell id="BXSHAzuIC0hG-03GseZI-10" value="Give player and dealer a card" style="rounded=1;whiteSpace=wrap;html=1;" vertex="1" parent="WIyWlLk6GJQsqaUBKTNV-1">
          <mxGeometry x="260" y="110" width="120" height="60" as="geometry" />
        </mxCell>
        <mxCell id="BXSHAzuIC0hG-03GseZI-16" style="edgeStyle=orthogonalEdgeStyle;rounded=0;orthogonalLoop=1;jettySize=auto;html=1;exitX=0.5;exitY=1;exitDx=0;exitDy=0;entryX=0.5;entryY=0;entryDx=0;entryDy=0;" edge="1" parent="WIyWlLk6GJQsqaUBKTNV-1" target="BXSHAzuIC0hG-03GseZI-14">
          <mxGeometry relative="1" as="geometry">
            <mxPoint x="320" y="330" as="sourcePoint" />
          </mxGeometry>
        </mxCell>
        <mxCell id="BXSHAzuIC0hG-03GseZI-25" style="edgeStyle=orthogonalEdgeStyle;rounded=0;orthogonalLoop=1;jettySize=auto;html=1;entryX=0.5;entryY=0;entryDx=0;entryDy=0;" edge="1" parent="WIyWlLk6GJQsqaUBKTNV-1" source="BXSHAzuIC0hG-03GseZI-11" target="BXSHAzuIC0hG-03GseZI-24">
          <mxGeometry relative="1" as="geometry" />
        </mxCell>
        <mxCell id="BXSHAzuIC0hG-03GseZI-11" value="Calculate the total score of both players" style="rounded=1;whiteSpace=wrap;html=1;" vertex="1" parent="WIyWlLk6GJQsqaUBKTNV-1">
          <mxGeometry x="260" y="190" width="120" height="60" as="geometry" />
        </mxCell>
        <mxCell id="BXSHAzuIC0hG-03GseZI-20" style="edgeStyle=orthogonalEdgeStyle;rounded=0;orthogonalLoop=1;jettySize=auto;html=1;entryX=0;entryY=0.5;entryDx=0;entryDy=0;" edge="1" parent="WIyWlLk6GJQsqaUBKTNV-1" source="BXSHAzuIC0hG-03GseZI-14" target="BXSHAzuIC0hG-03GseZI-19">
          <mxGeometry relative="1" as="geometry" />
        </mxCell>
        <mxCell id="BXSHAzuIC0hG-03GseZI-23" style="edgeStyle=orthogonalEdgeStyle;rounded=0;orthogonalLoop=1;jettySize=auto;html=1;" edge="1" parent="WIyWlLk6GJQsqaUBKTNV-1" source="BXSHAzuIC0hG-03GseZI-14">
          <mxGeometry relative="1" as="geometry">
            <mxPoint x="320" y="450" as="targetPoint" />
          </mxGeometry>
        </mxCell>
        <mxCell id="BXSHAzuIC0hG-03GseZI-14" value="Do you want to draw another card?" style="rhombus;whiteSpace=wrap;html=1;" vertex="1" parent="WIyWlLk6GJQsqaUBKTNV-1">
          <mxGeometry x="250" y="350" width="140" height="80" as="geometry" />
        </mxCell>
        <mxCell id="BXSHAzuIC0hG-03GseZI-18" value="Yes" style="text;html=1;strokeColor=none;fillColor=none;align=center;verticalAlign=middle;whiteSpace=wrap;rounded=0;" vertex="1" parent="WIyWlLk6GJQsqaUBKTNV-1">
          <mxGeometry x="380" y="370" width="40" height="20" as="geometry" />
        </mxCell>
        <mxCell id="BXSHAzuIC0hG-03GseZI-21" style="edgeStyle=orthogonalEdgeStyle;rounded=0;orthogonalLoop=1;jettySize=auto;html=1;entryX=1;entryY=0.5;entryDx=0;entryDy=0;" edge="1" parent="WIyWlLk6GJQsqaUBKTNV-1" source="BXSHAzuIC0hG-03GseZI-19" target="BXSHAzuIC0hG-03GseZI-11">
          <mxGeometry relative="1" as="geometry">
            <mxPoint x="490" y="220" as="targetPoint" />
            <Array as="points">
              <mxPoint x="480" y="220" />
            </Array>
          </mxGeometry>
        </mxCell>
        <mxCell id="BXSHAzuIC0hG-03GseZI-19" value="Draw another card" style="rounded=1;whiteSpace=wrap;html=1;" vertex="1" parent="WIyWlLk6GJQsqaUBKTNV-1">
          <mxGeometry x="420" y="360" width="120" height="60" as="geometry" />
        </mxCell>
        <mxCell id="BXSHAzuIC0hG-03GseZI-22" value="No" style="text;html=1;strokeColor=none;fillColor=none;align=center;verticalAlign=middle;whiteSpace=wrap;rounded=0;" vertex="1" parent="WIyWlLk6GJQsqaUBKTNV-1">
          <mxGeometry x="270" y="430" width="40" height="20" as="geometry" />
        </mxCell>
        <mxCell id="BXSHAzuIC0hG-03GseZI-24" value="Show player and dealer&#39;s one card" style="rounded=1;whiteSpace=wrap;html=1;" vertex="1" parent="WIyWlLk6GJQsqaUBKTNV-1">
          <mxGeometry x="260" y="270" width="120" height="60" as="geometry" />
        </mxCell>
        <mxCell id="BXSHAzuIC0hG-03GseZI-27" style="edgeStyle=orthogonalEdgeStyle;rounded=0;orthogonalLoop=1;jettySize=auto;html=1;" edge="1" parent="WIyWlLk6GJQsqaUBKTNV-1" source="BXSHAzuIC0hG-03GseZI-26">
          <mxGeometry relative="1" as="geometry">
            <mxPoint x="320" y="550" as="targetPoint" />
          </mxGeometry>
        </mxCell>
        <mxCell id="BXSHAzuIC0hG-03GseZI-28" style="edgeStyle=orthogonalEdgeStyle;rounded=0;orthogonalLoop=1;jettySize=auto;html=1;entryX=0;entryY=0.5;entryDx=0;entryDy=0;" edge="1" parent="WIyWlLk6GJQsqaUBKTNV-1" source="BXSHAzuIC0hG-03GseZI-26" target="BXSHAzuIC0hG-03GseZI-35">
          <mxGeometry relative="1" as="geometry">
            <mxPoint x="410" y="490" as="targetPoint" />
          </mxGeometry>
        </mxCell>
        <mxCell id="BXSHAzuIC0hG-03GseZI-26" value="Does dealer&#39;s score is higher than 17?" style="rhombus;whiteSpace=wrap;html=1;" vertex="1" parent="WIyWlLk6GJQsqaUBKTNV-1">
          <mxGeometry x="250" y="450" width="140" height="80" as="geometry" />
        </mxCell>
        <mxCell id="BXSHAzuIC0hG-03GseZI-29" value="No" style="text;html=1;strokeColor=none;fillColor=none;align=center;verticalAlign=middle;whiteSpace=wrap;rounded=0;" vertex="1" parent="WIyWlLk6GJQsqaUBKTNV-1">
          <mxGeometry x="280" y="530" width="40" height="20" as="geometry" />
        </mxCell>
        <mxCell id="BXSHAzuIC0hG-03GseZI-31" style="edgeStyle=orthogonalEdgeStyle;rounded=0;orthogonalLoop=1;jettySize=auto;html=1;entryX=0.5;entryY=1;entryDx=0;entryDy=0;" edge="1" parent="WIyWlLk6GJQsqaUBKTNV-1" source="BXSHAzuIC0hG-03GseZI-30" target="BXSHAzuIC0hG-03GseZI-32">
          <mxGeometry relative="1" as="geometry">
            <mxPoint x="240" y="580" as="targetPoint" />
            <Array as="points">
              <mxPoint x="180" y="580" />
            </Array>
          </mxGeometry>
        </mxCell>
        <mxCell id="BXSHAzuIC0hG-03GseZI-30" value="Draw a card to dealer" style="rounded=1;whiteSpace=wrap;html=1;" vertex="1" parent="WIyWlLk6GJQsqaUBKTNV-1">
          <mxGeometry x="260" y="550" width="120" height="60" as="geometry" />
        </mxCell>
        <mxCell id="BXSHAzuIC0hG-03GseZI-33" style="edgeStyle=orthogonalEdgeStyle;rounded=0;orthogonalLoop=1;jettySize=auto;html=1;entryX=0;entryY=0.5;entryDx=0;entryDy=0;" edge="1" parent="WIyWlLk6GJQsqaUBKTNV-1" source="BXSHAzuIC0hG-03GseZI-32" target="BXSHAzuIC0hG-03GseZI-26">
          <mxGeometry relative="1" as="geometry">
            <Array as="points">
              <mxPoint x="180" y="490" />
            </Array>
          </mxGeometry>
        </mxCell>
        <mxCell id="BXSHAzuIC0hG-03GseZI-32" value="Calculate dealer&#39;s total" style="rounded=1;whiteSpace=wrap;html=1;" vertex="1" parent="WIyWlLk6GJQsqaUBKTNV-1">
          <mxGeometry x="120" y="510" width="120" height="60" as="geometry" />
        </mxCell>
        <mxCell id="BXSHAzuIC0hG-03GseZI-34" value="Yes" style="text;html=1;strokeColor=none;fillColor=none;align=center;verticalAlign=middle;whiteSpace=wrap;rounded=0;" vertex="1" parent="WIyWlLk6GJQsqaUBKTNV-1">
          <mxGeometry x="380" y="470" width="40" height="20" as="geometry" />
        </mxCell>
        <mxCell id="BXSHAzuIC0hG-03GseZI-38" style="edgeStyle=orthogonalEdgeStyle;rounded=0;orthogonalLoop=1;jettySize=auto;html=1;entryX=0;entryY=0.5;entryDx=0;entryDy=0;" edge="1" parent="WIyWlLk6GJQsqaUBKTNV-1" source="BXSHAzuIC0hG-03GseZI-35" target="BXSHAzuIC0hG-03GseZI-37">
          <mxGeometry relative="1" as="geometry" />
        </mxCell>
        <mxCell id="BXSHAzuIC0hG-03GseZI-35" value="Calculate total score of both decks" style="rounded=1;whiteSpace=wrap;html=1;" vertex="1" parent="WIyWlLk6GJQsqaUBKTNV-1">
          <mxGeometry x="414" y="460" width="120" height="60" as="geometry" />
        </mxCell>
        <mxCell id="BXSHAzuIC0hG-03GseZI-39" style="edgeStyle=orthogonalEdgeStyle;rounded=0;orthogonalLoop=1;jettySize=auto;html=1;entryX=1;entryY=0.5;entryDx=0;entryDy=0;" edge="1" parent="WIyWlLk6GJQsqaUBKTNV-1" source="BXSHAzuIC0hG-03GseZI-37" target="BXSHAzuIC0hG-03GseZI-19">
          <mxGeometry relative="1" as="geometry">
            <mxPoint x="630" y="400" as="targetPoint" />
            <Array as="points">
              <mxPoint x="630" y="390" />
            </Array>
          </mxGeometry>
        </mxCell>
        <mxCell id="BXSHAzuIC0hG-03GseZI-42" style="edgeStyle=orthogonalEdgeStyle;rounded=0;orthogonalLoop=1;jettySize=auto;html=1;entryX=1;entryY=0.5;entryDx=0;entryDy=0;" edge="1" parent="WIyWlLk6GJQsqaUBKTNV-1" source="BXSHAzuIC0hG-03GseZI-37" target="BXSHAzuIC0hG-03GseZI-30">
          <mxGeometry relative="1" as="geometry">
            <Array as="points">
              <mxPoint x="630" y="580" />
            </Array>
          </mxGeometry>
        </mxCell>
        <mxCell id="BXSHAzuIC0hG-03GseZI-44" style="edgeStyle=orthogonalEdgeStyle;rounded=0;orthogonalLoop=1;jettySize=auto;html=1;entryX=0;entryY=0.5;entryDx=0;entryDy=0;" edge="1" parent="WIyWlLk6GJQsqaUBKTNV-1" source="BXSHAzuIC0hG-03GseZI-37" target="BXSHAzuIC0hG-03GseZI-43">
          <mxGeometry relative="1" as="geometry" />
        </mxCell>
        <mxCell id="BXSHAzuIC0hG-03GseZI-37" value="Does anyone have ace (11) and score is higher than 21?" style="rhombus;whiteSpace=wrap;html=1;" vertex="1" parent="WIyWlLk6GJQsqaUBKTNV-1">
          <mxGeometry x="560" y="450" width="140" height="80" as="geometry" />
        </mxCell>
        <mxCell id="BXSHAzuIC0hG-03GseZI-40" value="Player does" style="text;html=1;strokeColor=none;fillColor=none;align=center;verticalAlign=middle;whiteSpace=wrap;rounded=0;" vertex="1" parent="WIyWlLk6GJQsqaUBKTNV-1">
          <mxGeometry x="540" y="360" width="90" height="30" as="geometry" />
        </mxCell>
        <mxCell id="BXSHAzuIC0hG-03GseZI-41" value="Dealer does" style="text;html=1;strokeColor=none;fillColor=none;align=center;verticalAlign=middle;whiteSpace=wrap;rounded=0;" vertex="1" parent="WIyWlLk6GJQsqaUBKTNV-1">
          <mxGeometry x="480" y="550" width="90" height="30" as="geometry" />
        </mxCell>
        <mxCell id="BXSHAzuIC0hG-03GseZI-46" style="edgeStyle=orthogonalEdgeStyle;rounded=0;orthogonalLoop=1;jettySize=auto;html=1;entryX=0;entryY=0.5;entryDx=0;entryDy=0;" edge="1" parent="WIyWlLk6GJQsqaUBKTNV-1" source="BXSHAzuIC0hG-03GseZI-43" target="BXSHAzuIC0hG-03GseZI-48">
          <mxGeometry relative="1" as="geometry">
            <mxPoint x="860" y="490" as="targetPoint" />
          </mxGeometry>
        </mxCell>
        <mxCell id="BXSHAzuIC0hG-03GseZI-43" value="Show all the cards&amp;nbsp;" style="rounded=1;whiteSpace=wrap;html=1;" vertex="1" parent="WIyWlLk6GJQsqaUBKTNV-1">
          <mxGeometry x="720" y="460" width="120" height="60" as="geometry" />
        </mxCell>
        <mxCell id="BXSHAzuIC0hG-03GseZI-51" style="edgeStyle=orthogonalEdgeStyle;rounded=0;orthogonalLoop=1;jettySize=auto;html=1;exitX=0.5;exitY=0;exitDx=0;exitDy=0;entryX=0.5;entryY=1;entryDx=0;entryDy=0;" edge="1" parent="WIyWlLk6GJQsqaUBKTNV-1" source="BXSHAzuIC0hG-03GseZI-48" target="BXSHAzuIC0hG-03GseZI-49">
          <mxGeometry relative="1" as="geometry" />
        </mxCell>
        <mxCell id="BXSHAzuIC0hG-03GseZI-52" style="edgeStyle=orthogonalEdgeStyle;rounded=0;orthogonalLoop=1;jettySize=auto;html=1;exitX=0.5;exitY=1;exitDx=0;exitDy=0;entryX=0.5;entryY=0;entryDx=0;entryDy=0;" edge="1" parent="WIyWlLk6GJQsqaUBKTNV-1" source="BXSHAzuIC0hG-03GseZI-48" target="BXSHAzuIC0hG-03GseZI-50">
          <mxGeometry relative="1" as="geometry" />
        </mxCell>
        <mxCell id="BXSHAzuIC0hG-03GseZI-63" style="edgeStyle=orthogonalEdgeStyle;rounded=0;orthogonalLoop=1;jettySize=auto;html=1;entryX=0;entryY=0.5;entryDx=0;entryDy=0;" edge="1" parent="WIyWlLk6GJQsqaUBKTNV-1" source="BXSHAzuIC0hG-03GseZI-48" target="BXSHAzuIC0hG-03GseZI-62">
          <mxGeometry relative="1" as="geometry" />
        </mxCell>
        <mxCell id="BXSHAzuIC0hG-03GseZI-48" value="Does anyone score exceed 21?" style="rhombus;whiteSpace=wrap;html=1;" vertex="1" parent="WIyWlLk6GJQsqaUBKTNV-1">
          <mxGeometry x="860" y="440" width="140" height="100" as="geometry" />
        </mxCell>
        <mxCell id="BXSHAzuIC0hG-03GseZI-49" value="Player lost" style="rounded=1;whiteSpace=wrap;html=1;fillColor=#ffe6cc;strokeColor=#d79b00;" vertex="1" parent="WIyWlLk6GJQsqaUBKTNV-1">
          <mxGeometry x="870" y="360" width="120" height="60" as="geometry" />
        </mxCell>
        <mxCell id="BXSHAzuIC0hG-03GseZI-50" value="Dealer lost" style="rounded=1;whiteSpace=wrap;html=1;fillColor=#ffe6cc;strokeColor=#d79b00;" vertex="1" parent="WIyWlLk6GJQsqaUBKTNV-1">
          <mxGeometry x="870" y="555" width="120" height="60" as="geometry" />
        </mxCell>
        <mxCell id="BXSHAzuIC0hG-03GseZI-53" value="Player does" style="text;html=1;strokeColor=none;fillColor=none;align=center;verticalAlign=middle;whiteSpace=wrap;rounded=0;" vertex="1" parent="WIyWlLk6GJQsqaUBKTNV-1">
          <mxGeometry x="930" y="420" width="100" height="30" as="geometry" />
        </mxCell>
        <mxCell id="BXSHAzuIC0hG-03GseZI-54" value="Dealer does" style="text;html=1;strokeColor=none;fillColor=none;align=center;verticalAlign=middle;whiteSpace=wrap;rounded=0;" vertex="1" parent="WIyWlLk6GJQsqaUBKTNV-1">
          <mxGeometry x="930" y="525" width="100" height="30" as="geometry" />
        </mxCell>
        <mxCell id="BXSHAzuIC0hG-03GseZI-59" style="edgeStyle=orthogonalEdgeStyle;rounded=0;orthogonalLoop=1;jettySize=auto;html=1;exitX=1;exitY=0.5;exitDx=0;exitDy=0;entryX=0;entryY=0.5;entryDx=0;entryDy=0;" edge="1" parent="WIyWlLk6GJQsqaUBKTNV-1" source="BXSHAzuIC0hG-03GseZI-55">
          <mxGeometry relative="1" as="geometry">
            <mxPoint x="1320" y="490" as="targetPoint" />
          </mxGeometry>
        </mxCell>
        <mxCell id="BXSHAzuIC0hG-03GseZI-55" value="Calculate which score is closer to 21" style="rounded=1;whiteSpace=wrap;html=1;" vertex="1" parent="WIyWlLk6GJQsqaUBKTNV-1">
          <mxGeometry x="1180" y="460" width="120" height="60" as="geometry" />
        </mxCell>
        <mxCell id="BXSHAzuIC0hG-03GseZI-69" style="edgeStyle=orthogonalEdgeStyle;rounded=0;orthogonalLoop=1;jettySize=auto;html=1;entryX=0.5;entryY=1;entryDx=0;entryDy=0;" edge="1" parent="WIyWlLk6GJQsqaUBKTNV-1" source="BXSHAzuIC0hG-03GseZI-60" target="BXSHAzuIC0hG-03GseZI-68">
          <mxGeometry relative="1" as="geometry" />
        </mxCell>
        <mxCell id="BXSHAzuIC0hG-03GseZI-60" value="The one with the closest to 21 wins!" style="rounded=1;whiteSpace=wrap;html=1;fillColor=#60a917;fontColor=#ffffff;strokeColor=#2D7600;" vertex="1" parent="WIyWlLk6GJQsqaUBKTNV-1">
          <mxGeometry x="1320" y="460" width="120" height="60" as="geometry" />
        </mxCell>
        <mxCell id="BXSHAzuIC0hG-03GseZI-64" style="edgeStyle=orthogonalEdgeStyle;rounded=0;orthogonalLoop=1;jettySize=auto;html=1;entryX=0;entryY=0.5;entryDx=0;entryDy=0;" edge="1" parent="WIyWlLk6GJQsqaUBKTNV-1" source="BXSHAzuIC0hG-03GseZI-62" target="BXSHAzuIC0hG-03GseZI-55">
          <mxGeometry relative="1" as="geometry" />
        </mxCell>
        <mxCell id="BXSHAzuIC0hG-03GseZI-67" style="edgeStyle=orthogonalEdgeStyle;rounded=0;orthogonalLoop=1;jettySize=auto;html=1;entryX=0.5;entryY=1;entryDx=0;entryDy=0;" edge="1" parent="WIyWlLk6GJQsqaUBKTNV-1" source="BXSHAzuIC0hG-03GseZI-62" target="BXSHAzuIC0hG-03GseZI-66">
          <mxGeometry relative="1" as="geometry" />
        </mxCell>
        <mxCell id="BXSHAzuIC0hG-03GseZI-62" value="Does both of players have 21 or both exceeded?" style="rhombus;whiteSpace=wrap;html=1;" vertex="1" parent="WIyWlLk6GJQsqaUBKTNV-1">
          <mxGeometry x="1020" y="440" width="140" height="100" as="geometry" />
        </mxCell>
        <mxCell id="BXSHAzuIC0hG-03GseZI-65" value="No" style="text;html=1;strokeColor=none;fillColor=none;align=center;verticalAlign=middle;whiteSpace=wrap;rounded=0;" vertex="1" parent="WIyWlLk6GJQsqaUBKTNV-1">
          <mxGeometry x="1140" y="460" width="40" height="20" as="geometry" />
        </mxCell>
        <mxCell id="BXSHAzuIC0hG-03GseZI-66" value="Draw" style="rounded=1;whiteSpace=wrap;html=1;fillColor=#ffe6cc;strokeColor=#d79b00;" vertex="1" parent="WIyWlLk6GJQsqaUBKTNV-1">
          <mxGeometry x="1030" y="360" width="120" height="60" as="geometry" />
        </mxCell>
        <mxCell id="BXSHAzuIC0hG-03GseZI-71" style="edgeStyle=orthogonalEdgeStyle;rounded=0;orthogonalLoop=1;jettySize=auto;html=1;entryX=0;entryY=0.5;entryDx=0;entryDy=0;" edge="1" parent="WIyWlLk6GJQsqaUBKTNV-1" source="BXSHAzuIC0hG-03GseZI-68" target="BXSHAzuIC0hG-03GseZI-70">
          <mxGeometry relative="1" as="geometry" />
        </mxCell>
        <mxCell id="BXSHAzuIC0hG-03GseZI-75" style="edgeStyle=orthogonalEdgeStyle;rounded=0;orthogonalLoop=1;jettySize=auto;html=1;entryX=1;entryY=0.5;entryDx=0;entryDy=0;" edge="1" parent="WIyWlLk6GJQsqaUBKTNV-1" source="BXSHAzuIC0hG-03GseZI-68" target="BXSHAzuIC0hG-03GseZI-9">
          <mxGeometry relative="1" as="geometry">
            <mxPoint x="1380" y="90" as="targetPoint" />
            <Array as="points">
              <mxPoint x="1380" y="60" />
            </Array>
          </mxGeometry>
        </mxCell>
        <mxCell id="BXSHAzuIC0hG-03GseZI-68" value="Would you like to play again?" style="rhombus;whiteSpace=wrap;html=1;" vertex="1" parent="WIyWlLk6GJQsqaUBKTNV-1">
          <mxGeometry x="1310" y="260" width="140" height="100" as="geometry" />
        </mxCell>
        <mxCell id="BXSHAzuIC0hG-03GseZI-70" value="Game over!" style="rounded=1;whiteSpace=wrap;html=1;" vertex="1" parent="WIyWlLk6GJQsqaUBKTNV-1">
          <mxGeometry x="1480" y="280" width="120" height="60" as="geometry" />
        </mxCell>
        <mxCell id="BXSHAzuIC0hG-03GseZI-72" value="No" style="text;html=1;strokeColor=none;fillColor=none;align=center;verticalAlign=middle;whiteSpace=wrap;rounded=0;" vertex="1" parent="WIyWlLk6GJQsqaUBKTNV-1">
          <mxGeometry x="1440" y="280" width="40" height="20" as="geometry" />
        </mxCell>
        <mxCell id="BXSHAzuIC0hG-03GseZI-73" value="Yes" style="text;html=1;strokeColor=none;fillColor=none;align=center;verticalAlign=middle;whiteSpace=wrap;rounded=0;" vertex="1" parent="WIyWlLk6GJQsqaUBKTNV-1">
          <mxGeometry x="1330" y="230" width="40" height="20" as="geometry" />
        </mxCell>
      </root>
    </mxGraphModel>
  </diagram>
</mxfile>
